<?xml version="1.0" encoding="UTF-8"?>
<svg width="150" height="40" viewBox="0 0 150 40" fill="none" xmlns="http://www.w3.org/2000/svg">
  <path d="M20 5L35 35H5L20 5Z" fill="url(#paint0_linear)" />
  <path d="M45 10H55V15H45V10Z" fill="url(#paint1_linear)" />
  <path d="M45 17.5H60V22.5H45V17.5Z" fill="url(#paint2_linear)" />
  <path d="M45 25H50V30H45V25Z" fill="url(#paint3_linear)" />
  <path d="M65 10H75L80 30H75L74 25H66L65 30H60L65 10ZM67 20H73L72 15H68L67 20Z" fill="white" />
  <path d="M82 10H87V30H82V10Z" fill="white" />
  <path d="M95 10H100L110 20V10H115V30H110L100 20V30H95V10Z" fill="white" />
  <path d="M120 10H125V25H135V30H120V10Z" fill="white" />
  <path d="M140 10H145V25H150V30H140V10Z" fill="white" />
  <path d="M137 10H142V15H137V10Z" fill="white" />
  <defs>
    <linearGradient id="paint0_linear" x1="5" y1="5" x2="35" y2="35" gradientUnits="userSpaceOnUse">
      <stop stop-color="#60A5FA" />
      <stop offset="1" stop-color="#8B5CF6" />
    </linearGradient>
    <linearGradient id="paint1_linear" x1="45" y1="10" x2="55" y2="15" gradientUnits="userSpaceOnUse">
      <stop stop-color="#60A5FA" />
      <stop offset="1" stop-color="#8B5CF6" />
    </linearGradient>
    <linearGradient id="paint2_linear" x1="45" y1="17.5" x2="60" y2="22.5" gradientUnits="userSpaceOnUse">
      <stop stop-color="#60A5FA" />
      <stop offset="1" stop-color="#8B5CF6" />
    </linearGradient>
    <linearGradient id="paint3_linear" x1="45" y1="25" x2="50" y2="30" gradientUnits="userSpaceOnUse">
      <stop stop-color="#60A5FA" />
      <stop offset="1" stop-color="#8B5CF6" />
    </linearGradient>
  </defs>
</svg>
